<svg width="102" height="102" viewBox="0 0 102 102" fill="none" xmlns="http://www.w3.org/2000/svg">
<rect width="102" height="102" rx="20" fill="url(#paint0_linear_2275_13517)"/>
<g clip-path="url(#clip0_2275_13517)">
<path fill-rule="evenodd" clip-rule="evenodd" d="M10 36C10 32.6863 12.6863 30 16 30H86C89.3137 30 92 32.6863 92 36V67C92 70.3137 89.3137 73 86 73H16C12.6863 73 10 70.3137 10 67V36ZM85.4629 35.3746H16.5354C15.8791 35.3746 15.347 35.9094 15.347 36.5691V66.4302C15.347 67.0899 15.8791 67.6246 16.5354 67.6246H85.4629C86.1193 67.6246 86.6513 67.0899 86.6513 66.4302V36.5691C86.6513 35.9094 86.1193 35.3746 85.4629 35.3746ZM16.5354 32.3885C14.2382 32.3885 12.376 34.2602 12.376 36.5691V66.4302C12.376 68.739 14.2382 70.6107 16.5354 70.6107H85.4629C87.7601 70.6107 89.6224 68.739 89.6224 66.4302V36.5691C89.6224 34.2602 87.7601 32.3885 85.4629 32.3885H16.5354ZM34.6141 46.5048L28.1326 59.0608H24.2607L30.122 47.7733H24.2607V44.3333H34.6141V46.5048ZM46.7303 46.5048L40.2487 59.0608H36.3769L42.2381 47.7733H36.3769V44.3333H46.7303V46.5048ZM50.6322 55.7713C50.0903 55.7713 49.6339 55.9362 49.2632 56.2658C48.8924 56.5955 48.707 57.004 48.707 57.4913C48.707 57.9787 48.8924 58.3872 49.2632 58.7168C49.6339 59.0465 50.0903 59.2113 50.6322 59.2113C51.1741 59.2113 51.6305 59.0465 52.0013 58.7168C52.3863 58.3872 52.5788 57.9787 52.5788 57.4913C52.5788 57.004 52.3863 56.5955 52.0013 56.2658C51.6305 55.9362 51.1741 55.7713 50.6322 55.7713ZM65.7816 59.0608H63.5997L63.343 57.7708C62.6157 58.7312 61.4962 59.2113 59.9846 59.2113C58.4586 59.2113 57.2964 58.7312 56.4978 57.7708C55.6992 56.8105 55.2999 55.5277 55.2999 53.9223V48.3108H58.6369V53.7288C58.6369 55.2195 59.2644 55.9648 60.5193 55.9648C61.8028 55.9648 62.4446 55.198 62.4446 53.6643V48.3108H65.7816V59.0608ZM68.5107 59.0608H77.495V55.8143H73.2167L77.2811 50.9123L77.3025 48.3108H68.8101V51.5573H72.5964L68.5321 56.4593L68.5107 59.0608Z" fill="url(#paint1_linear_2275_13517)"/>
</g>
<rect x="1" y="1" width="100" height="100" rx="19" stroke="white" stroke-opacity="0.2" stroke-width="2"/>
<defs>
<linearGradient id="paint0_linear_2275_13517" x1="51" y1="0" x2="51" y2="102" gradientUnits="userSpaceOnUse">
<stop stop-color="#388FF3"/>
<stop offset="1" stop-color="#246BBD"/>
</linearGradient>
<linearGradient id="paint1_linear_2275_13517" x1="51" y1="30" x2="51" y2="73" gradientUnits="userSpaceOnUse">
<stop stop-color="white"/>
<stop offset="0.515625" stop-color="white" stop-opacity="0.92"/>
<stop offset="1" stop-color="white"/>
</linearGradient>
<clipPath id="clip0_2275_13517">
<rect x="10" y="30" width="82" height="43" rx="6.00028" fill="white"/>
</clipPath>
</defs>
</svg>
