<svg width="121" height="113" viewBox="0 0 121 113" fill="none" xmlns="http://www.w3.org/2000/svg">
<path d="M96.0437 112.982C97.9976 112.987 99.8811 112.25 101.317 110.919C107.305 105.352 112.096 98.6137 115.395 91.1183C118.693 83.6229 120.43 75.5292 120.497 67.335C120.804 34.0159 93.8295 6.60029 60.6448 6.52166C27.4412 6.44298 0.500039 33.4458 0.500039 66.7668C0.490558 75.0601 2.19126 83.2656 5.49507 90.8665C8.79887 98.4675 13.6342 105.299 19.6966 110.932C21.1292 112.256 23.0072 112.989 24.9547 112.982H96.0437Z" fill="url(#paint0_linear_486_27932)"/>
<path d="M72.1767 7.04626C71.1854 7.03753 70.2169 6.74803 69.384 6.21143C68.5511 5.67484 67.888 4.91321 67.4718 4.01517C66.8978 2.81312 65.9944 1.79799 64.8661 1.08737C63.7378 0.376754 62.4309 -0.000262065 61.0967 1.36671e-07H59.9008V0.102723C58.7787 0.29575 57.7199 0.756395 56.8145 1.44548C55.9091 2.13457 55.1839 3.03171 54.7004 4.06061C54.2851 4.95108 53.6241 5.70492 52.7947 6.23373C51.9654 6.76254 51.0022 7.0444 50.0181 7.04626H45.2035C44.8647 7.04626 44.5292 7.11286 44.2162 7.24227C43.9032 7.37167 43.6188 7.56135 43.3792 7.80046C43.1396 8.03957 42.9496 8.32343 42.8199 8.63585C42.6903 8.94826 42.6235 9.2831 42.6235 9.62125V13.7829C42.6235 14.4658 42.8954 15.1208 43.3792 15.6037C43.863 16.0866 44.5193 16.3579 45.2035 16.3579H76.9898C77.6741 16.3579 78.3303 16.0866 78.8142 15.6037C79.298 15.1208 79.5698 14.4658 79.5698 13.7829V9.62127C79.5698 8.93834 79.298 8.28337 78.8142 7.80047C78.3303 7.31756 77.6741 7.04626 76.9899 7.04626H72.1767Z" fill="#388FF3"/>
<path opacity="0.15" d="M72.1767 7.04626C71.1854 7.03753 70.2169 6.74803 69.384 6.21143C68.5511 5.67484 67.888 4.91321 67.4718 4.01517C66.8978 2.81312 65.9944 1.79799 64.8661 1.08737C63.7378 0.376754 62.4309 -0.000262065 61.0967 1.36671e-07H59.9008V0.102723C58.7787 0.29575 57.7199 0.756395 56.8145 1.44548C55.9091 2.13457 55.1839 3.03171 54.7004 4.06061C54.2851 4.95108 53.6241 5.70492 52.7947 6.23373C51.9654 6.76254 51.0022 7.0444 50.0181 7.04626H45.2035C44.8647 7.04626 44.5292 7.11286 44.2162 7.24227C43.9032 7.37167 43.6188 7.56135 43.3792 7.80046C43.1396 8.03957 42.9496 8.32343 42.8199 8.63585C42.6903 8.94826 42.6235 9.2831 42.6235 9.62125V13.7829C42.6235 14.4658 42.8954 15.1208 43.3792 15.6037C43.863 16.0866 44.5193 16.3579 45.2035 16.3579H76.9898C77.6741 16.3579 78.3303 16.0866 78.8142 15.6037C79.298 15.1208 79.5698 14.4658 79.5698 13.7829V9.62127C79.5698 8.93834 79.298 8.28337 78.8142 7.80047C78.3303 7.31756 77.6741 7.04626 76.9899 7.04626H72.1767Z" fill="#16191D"/>
<path fill-rule="evenodd" clip-rule="evenodd" d="M94.594 11.9512C96.5718 11.9512 98.175 13.5514 98.175 15.5253V109.426C98.175 111.4 96.5718 113 94.594 113H28.3129C26.3352 113 24.7319 111.4 24.7319 109.426V15.5253C24.7319 13.5514 26.3352 11.9512 28.3129 11.9512H94.594Z" fill="#F0F3F7"/>
<path fill-rule="evenodd" clip-rule="evenodd" d="M92.6873 11.9512C94.665 11.9512 96.2683 13.5514 96.2683 15.5253V109.426C96.2683 111.4 94.665 113 92.6873 113H26.4062C24.4285 113 22.8252 111.4 22.8252 109.426V15.5253C22.8252 13.5514 24.4285 11.9512 26.4062 11.9512H92.6873Z" fill="#D5D8DB"/>
<path fill-rule="evenodd" clip-rule="evenodd" d="M89.5453 15.9629C90.8334 15.9629 91.8775 17.005 91.8775 18.2906V106.613C91.8775 107.899 90.8334 108.941 89.5453 108.941H29.5475C28.2595 108.941 27.2153 107.899 27.2153 106.613V18.2906C27.2153 17.005 28.2595 15.9629 29.5475 15.9629H89.5453Z" fill="white"/>
<path fill-rule="evenodd" clip-rule="evenodd" d="M38.5 80C35.1863 80 32.5 77.3137 32.5 74C32.5 70.6863 35.1863 68 38.5 68C41.8137 68 44.5 70.6863 44.5 74C44.5 77.3137 41.8137 80 38.5 80Z" fill="#E93C47"/>
<path fill-rule="evenodd" clip-rule="evenodd" d="M38.5 44C35.1863 44 32.5 41.3137 32.5 38C32.5 34.6863 35.1863 32 38.5 32C41.8137 32 44.5 34.6863 44.5 38C44.5 41.3137 41.8137 44 38.5 44Z" fill="#E93C47"/>
<path fill-rule="evenodd" clip-rule="evenodd" d="M38.5 62C35.1863 62 32.5 59.3137 32.5 56C32.5 52.6863 35.1863 50 38.5 50C41.8137 50 44.5 52.6863 44.5 56C44.5 59.3137 41.8137 62 38.5 62Z" fill="#E93C47"/>
<path d="M40.8332 71.6667L36.1665 76.3334M40.8332 76.3334L36.1665 71.6667" stroke="white" stroke-width="1.2" stroke-linecap="round"/>
<path d="M40.8332 35.6667L36.1665 40.3334M40.8332 40.3334L36.1665 35.6667" stroke="white" stroke-width="1.2" stroke-linecap="round"/>
<path d="M40.8332 53.6667L36.1665 58.3334M40.8332 58.3334L36.1665 53.6667" stroke="white" stroke-width="1.2" stroke-linecap="round"/>
<path fill-rule="evenodd" clip-rule="evenodd" d="M84.7824 36.3594C85.839 36.3594 86.6955 37.2142 86.6955 38.2688V38.2688C86.6955 39.3233 85.839 40.1782 84.7824 40.1782H51.5571C50.5006 40.1782 49.644 39.3233 49.644 38.2688V38.2688C49.644 37.2142 50.5006 36.3594 51.5571 36.3594H84.7824Z" fill="#D5D8DB"/>
<path fill-rule="evenodd" clip-rule="evenodd" d="M84.7824 54.1973C85.839 54.1973 86.6955 55.0521 86.6955 56.1067V56.1067C86.6955 57.1612 85.839 58.0161 84.7824 58.0161H51.5571C50.5006 58.0161 49.644 57.1612 49.644 56.1067V56.1067C49.644 55.0521 50.5006 54.1973 51.5571 54.1973H84.7824Z" fill="#D5D8DB"/>
<path fill-rule="evenodd" clip-rule="evenodd" d="M84.7824 72.0332C85.839 72.0332 86.6955 72.8881 86.6955 73.9426C86.6955 74.9971 85.839 75.852 84.7824 75.852H51.5571C50.5006 75.852 49.644 74.9971 49.644 73.9426C49.644 72.8881 50.5006 72.0332 51.5571 72.0332H84.7824Z" fill="#D5D8DB"/>
<path fill-rule="evenodd" clip-rule="evenodd" d="M39.0649 98.0119C35.6153 98.0119 32.8188 95.2206 32.8188 91.7774C32.8188 88.3342 35.6153 85.543 39.0649 85.543C42.5146 85.543 45.311 88.3342 45.311 91.7774C45.311 95.2206 42.5146 98.0119 39.0649 98.0119Z" fill="#D5D8DB"/>
<path fill-rule="evenodd" clip-rule="evenodd" d="M84.7824 89.8691C85.839 89.8691 86.6955 90.724 86.6955 91.7785V91.7785C86.6955 92.8331 85.839 93.6879 84.7824 93.6879H51.5571C50.5006 93.6879 49.644 92.8331 49.644 91.7785V91.7785C49.644 90.724 50.5006 89.8691 51.5571 89.8691H84.7824Z" fill="#D5D8DB"/>
<path d="M70.9819 7.04627C69.9905 7.03754 69.0221 6.74804 68.1892 6.21144C67.3563 5.67484 66.6932 4.91322 66.277 4.01518C65.7028 2.81329 64.7993 1.7983 63.671 1.08771C62.5428 0.377125 61.236 0 59.9019 0C58.5678 0 57.261 0.377125 56.1327 1.08771C55.0045 1.7983 54.101 2.81329 53.5268 4.01518C53.1106 4.91322 52.4475 5.67484 51.6146 6.21144C50.7817 6.74804 49.8132 7.03754 48.8219 7.04627H44.0087C43.6699 7.04627 43.3344 7.11287 43.0214 7.24228C42.7084 7.37168 42.4239 7.56135 42.1844 7.80046C41.9448 8.03957 41.7548 8.32344 41.6251 8.63585C41.4954 8.94827 41.4287 9.28311 41.4287 9.62126V19.4344C41.4287 20.1173 41.7005 20.7723 42.1844 21.2552C42.6682 21.7381 43.3245 22.0094 44.0087 22.0094H75.795C76.1338 22.0094 76.4693 21.9428 76.7823 21.8134C77.0954 21.684 77.3798 21.4943 77.6194 21.2552C77.8589 21.0161 78.049 20.7322 78.1786 20.4198C78.3083 20.1073 78.375 19.7725 78.375 19.4343V9.62128C78.375 8.93835 78.1032 8.28338 77.6194 7.80048C77.1355 7.31757 76.4793 7.04627 75.795 7.04627H70.9819Z" fill="#388FF3"/>
<path opacity="0.2" fill-rule="evenodd" clip-rule="evenodd" d="M74.5875 18.2051C75.1491 18.2051 75.6043 18.6594 75.6043 19.2199V19.2199C75.6043 19.7804 75.1491 20.2347 74.5875 20.2347H46.0563C45.4948 20.2347 45.0396 19.7804 45.0396 19.2199V19.2199C45.0396 18.6594 45.4948 18.2051 46.0563 18.2051H74.5875Z" fill="white"/>
<path fill-rule="evenodd" clip-rule="evenodd" d="M90.5 112C83.8726 112 78.5 106.627 78.5 100C78.5 93.3726 83.8726 88 90.5 88C97.1274 88 102.5 93.3726 102.5 100C102.5 106.627 97.1274 112 90.5 112Z" fill="#E93C47"/>
<path d="M95.1668 95.3333L85.8335 104.667M95.1668 104.667L85.8335 95.3333" stroke="white" stroke-width="2" stroke-linecap="round"/>
<defs>
<linearGradient id="paint0_linear_486_27932" x1="0.5" y1="6.52148" x2="0.5" y2="112.983" gradientUnits="userSpaceOnUse">
<stop stop-color="#FBFDFE"/>
<stop offset="1" stop-color="#F0F5FA"/>
</linearGradient>
</defs>
</svg>
