<svg width="32" height="32" viewBox="0 0 32 32" fill="none" xmlns="http://www.w3.org/2000/svg">
<path d="M28.7999 25.9555C28.7999 27.5264 27.5439 28.7999 25.9945 28.7999L6.00543 28.7999C4.45601 28.7999 3.19995 27.5264 3.19995 25.9555L3.19995 21.6888C3.19995 20.1179 4.45601 18.8444 6.00543 18.8444L25.9945 18.8444C27.5439 18.8444 28.7999 20.1179 28.7999 21.6888V25.9555Z" stroke="#B8BBBD" stroke-width="2.5" stroke-linecap="round" stroke-linejoin="round"/>
<path d="M28.7999 6.04439C28.7999 4.47345 27.5439 3.19995 25.9945 3.19995L6.00543 3.19995C4.45601 3.19995 3.19995 4.47345 3.19995 6.0444L3.19995 10.3111C3.19995 11.882 4.45601 13.1555 6.00543 13.1555H25.9945C27.5439 13.1555 28.7999 11.882 28.7999 10.3111V6.04439Z" stroke="#B8BBBD" stroke-width="2.5" stroke-linecap="round" stroke-linejoin="round"/>
</svg>
