<svg width="22" height="20" viewBox="0 0 22 20" fill="none" xmlns="http://www.w3.org/2000/svg">
<path d="M7.35718 13.4176H4.79595C3.17291 13.4176 1.85718 12.3107 1.85718 10.6877C1.85718 9.06462 3.17291 7.74889 4.79595 7.74889C4.90632 7.74889 5.01527 7.75498 5.12248 7.76683V7.74889H5.1629C5.13623 7.53495 5.12248 7.31699 5.12248 7.09583C5.12248 4.21042 7.46157 1.87134 10.347 1.87134C12.3009 1.87134 14.0043 2.94395 14.9005 4.53248C15.1195 4.50027 15.3435 4.48358 15.5715 4.48358C18.0962 4.48358 20.1429 6.53028 20.1429 9.05501C20.1429 11.358 18.4399 13.0545 16.2245 13.3713H13.8572M10.6735 8.07542V18.1286M10.6735 18.1286L8.35718 15.8713M10.6735 18.1286L12.9286 15.8713" stroke="#388FF3" stroke-width="2" stroke-linecap="round" stroke-linejoin="round"/>
</svg>
