<svg width="129" height="156" viewBox="0 0 129 156" fill="none" xmlns="http://www.w3.org/2000/svg">
<path d="M104.044 133C105.998 133.005 107.881 132.264 109.317 130.926C115.305 125.331 120.096 118.558 123.395 111.025C126.693 103.492 128.43 95.3571 128.497 87.1214C128.804 53.6336 101.83 26.0792 68.6448 26.0002C35.4412 25.9211 8.50004 53.0606 8.50004 86.5503C8.49056 94.8856 10.1913 103.133 13.4951 110.772C16.7989 118.411 21.6342 125.278 27.6967 130.939C29.1292 132.27 31.0072 133.006 32.9547 133H104.044Z" fill="url(#paint0_linear_486_26204)"/>
<path d="M25.3555 132.739C24.7048 132.739 24.0604 132.61 23.4592 132.36C22.8581 132.111 22.3118 131.744 21.8517 131.283C21.3916 130.821 21.0266 130.273 20.7776 129.67C20.5286 129.067 20.4004 128.421 20.4004 127.768V42.0155C20.4004 40.6972 20.9224 39.4329 21.8517 38.5008C22.781 37.5686 24.0413 37.0449 25.3555 37.0449H62.1058L83.8699 58.877V127.768C83.8699 129.086 83.3479 130.351 82.4186 131.283C81.4894 132.215 80.229 132.739 78.9149 132.739H25.3555Z" fill="#EAEDF0"/>
<g filter="url(#filter0_d_486_26204)">
<path d="M35.5596 121.954C34.9089 121.954 34.2645 121.825 33.6633 121.575C33.0622 121.325 32.5159 120.959 32.0558 120.498C31.5957 120.036 31.2307 119.488 30.9817 118.885C30.7327 118.282 30.6045 117.636 30.6045 116.983V31.2303C30.6045 30.5776 30.7327 29.9312 30.9817 29.3282C31.2307 28.7251 31.5957 28.1772 32.0558 27.7156C32.5159 27.2541 33.0622 26.8879 33.6633 26.6381C34.2645 26.3883 34.9089 26.2598 35.5596 26.2598H72.31L94.0741 48.0919V116.983C94.0741 117.636 93.9459 118.282 93.6969 118.885C93.4479 119.488 93.0829 120.036 92.6227 120.498C92.1626 120.959 91.6164 121.325 91.0152 121.575C90.414 121.825 89.7697 121.954 89.119 121.954H35.5596Z" fill="white"/>
</g>
<path d="M77.2656 48.0919C75.9515 48.0919 74.6911 47.5682 73.7619 46.636C72.8326 45.7039 72.3105 44.4396 72.3105 43.1213V26.2598L94.0746 48.0919H77.2656Z" fill="#388FF3"/>
<path fill-rule="evenodd" clip-rule="evenodd" d="M53.7847 74.0668C51.5985 74.0668 49.8262 72.2889 49.8262 70.0959C49.8262 67.9028 51.5985 66.125 53.7847 66.125C55.9709 66.125 57.7432 67.9028 57.7432 70.0959C57.7432 72.2889 55.9709 74.0668 53.7847 74.0668Z" fill="#388FF3"/>
<path fill-rule="evenodd" clip-rule="evenodd" d="M70.6382 74.0668C68.452 74.0668 66.6797 72.2889 66.6797 70.0959C66.6797 67.9028 68.452 66.125 70.6382 66.125C72.8244 66.125 74.5967 67.9028 74.5967 70.0959C74.5967 72.2889 72.8244 74.0668 70.6382 74.0668Z" fill="#388FF3"/>
<path d="M73.854 88.7389C73.5506 88.6129 73.2751 88.4279 73.0432 88.1947C70.1679 85.317 66.272 83.7008 62.2103 83.7008C58.1486 83.7008 54.2527 85.3169 51.3773 88.1946C51.1452 88.4275 50.8696 88.6123 50.5663 88.7384C50.263 88.8645 49.9379 88.9294 49.6095 88.9294C49.2812 88.9294 48.9561 88.8646 48.6527 88.7386C48.3494 88.6125 48.0738 88.4278 47.8416 88.1949C47.6094 87.962 47.4253 87.6855 47.2996 87.3812C47.174 87.0769 47.1093 86.7508 47.1094 86.4214C47.1094 86.0921 47.1741 85.766 47.2998 85.4617C47.4255 85.1574 47.6097 84.881 47.8419 84.6481C51.6556 80.8311 56.8229 78.6875 62.2102 78.6875C67.5975 78.6875 72.7649 80.831 76.5786 84.648C76.9283 84.9987 77.1664 85.4455 77.2629 85.932C77.3594 86.4185 77.3099 86.9227 77.1207 87.381C76.9314 87.8393 76.611 88.2309 76.1999 88.5065C75.7887 88.7821 75.3054 88.9292 74.8109 88.9292L74.8109 88.9292C74.4825 88.9296 74.1573 88.865 73.854 88.7389Z" fill="#388FF3"/>
<path fill-rule="evenodd" clip-rule="evenodd" d="M89.4569 97.4682L106.743 114.809L102.15 119.417L84.8633 102.076L89.4569 97.4682Z" fill="#D5D8DB"/>
<path fill-rule="evenodd" clip-rule="evenodd" d="M26.7278 70.4875C25.3311 77.5313 26.0479 84.8324 28.7877 91.4675C31.5275 98.1027 36.1672 103.774 42.12 107.764C48.0729 111.754 55.0715 113.883 62.231 113.883C69.3904 113.883 76.389 111.754 82.3419 107.764C88.2947 103.774 92.9344 98.1027 95.6742 91.4675C98.414 84.8324 99.1309 77.5313 97.7341 70.4875C96.3374 63.4437 92.8898 56.9736 87.8273 51.8953C84.466 48.5234 80.4754 45.8487 76.0836 44.0238C71.6918 42.199 66.9846 41.2598 62.231 41.2598C57.4773 41.2598 52.7701 42.199 48.3783 44.0238C43.9865 45.8487 39.9959 48.5234 36.6346 51.8953C31.5721 56.9736 28.1245 63.4437 26.7278 70.4875ZM67.9904 106.617C62.2637 107.76 56.3278 107.173 50.9333 104.932C45.5389 102.69 40.9282 98.8945 37.6842 94.0244C34.4403 89.1544 32.7089 83.4288 32.7089 77.5716C32.7089 71.7144 34.4403 65.9888 37.6843 61.1188C40.9282 56.2487 45.5389 52.453 50.9334 50.2116C56.3278 47.9701 62.2637 47.3837 67.9904 48.5263C73.7171 49.669 78.9775 52.4895 83.1062 56.6312C88.6427 62.1849 91.753 69.7174 91.753 77.5716C91.753 85.4258 88.6426 92.9583 83.1062 98.5121C78.9774 102.654 73.7171 105.474 67.9904 106.617Z" fill="#D5D8DB"/>
<path fill-rule="evenodd" clip-rule="evenodd" d="M93.1031 105.951C95.9818 103.063 100.649 103.063 103.528 105.951L114.44 116.897C117.319 119.785 117.319 124.467 114.44 127.355L114.44 127.355C111.562 130.243 106.894 130.243 104.015 127.355L93.1031 116.408C90.2243 113.521 90.2243 108.839 93.1031 105.951L93.1031 105.951Z" fill="#388FF3"/>
<defs>
<filter id="filter0_d_486_26204" x="0.604492" y="0.259766" width="123.47" height="155.693" filterUnits="userSpaceOnUse" color-interpolation-filters="sRGB">
<feFlood flood-opacity="0" result="BackgroundImageFix"/>
<feColorMatrix in="SourceAlpha" type="matrix" values="0 0 0 0 0 0 0 0 0 0 0 0 0 0 0 0 0 0 127 0" result="hardAlpha"/>
<feOffset dy="4"/>
<feGaussianBlur stdDeviation="15"/>
<feColorMatrix type="matrix" values="0 0 0 0 0 0 0 0 0 0 0 0 0 0 0 0 0 0 0.1 0"/>
<feBlend mode="normal" in2="BackgroundImageFix" result="effect1_dropShadow_486_26204"/>
<feBlend mode="normal" in="SourceGraphic" in2="effect1_dropShadow_486_26204" result="shape"/>
</filter>
<linearGradient id="paint0_linear_486_26204" x1="8.5" y1="26" x2="8.5" y2="133" gradientUnits="userSpaceOnUse">
<stop stop-color="#FBFDFE"/>
<stop offset="1" stop-color="#F0F5FA"/>
</linearGradient>
</defs>
</svg>
