<svg width="32" height="32" viewBox="0 0 32 32" fill="none" xmlns="http://www.w3.org/2000/svg">
<path d="M29.6034 5.51831H2.39656C1.07294 5.51831 0 6.59125 0 7.91487V24.0873C0 25.4109 1.07294 26.4839 2.39656 26.4839H29.6034C30.927 26.4839 32 25.4109 32 24.0873V7.91487C32 6.59125 30.9271 5.51831 29.6034 5.51831Z" fill="#41479B"/>
<path d="M31.9668 7.51875C31.7779 6.38381 30.792 5.51831 29.6034 5.51831H28.9799L18.7586 12.215V5.51837H13.2414V12.2151L3.02012 5.51837H2.39656C1.208 5.51837 0.222062 6.38381 0.0331875 7.51881L8.76931 13.2426H0V18.7598H8.76931L0.0331875 24.4834C0.222062 25.6184 1.208 26.4839 2.39656 26.4839H3.02012L13.2414 19.7872V26.4839H18.7586V19.7872L28.9799 26.4839H29.6034C30.792 26.4839 31.7779 25.6184 31.9668 24.4834L23.2307 18.7597H32V13.2424H23.2307L31.9668 7.51875Z" fill="#F5F5F5"/>
<path d="M17.6552 5.51831H14.3448V14.3459H0V17.6562H14.3448V26.4838H17.6552V17.6562H32V14.3459H17.6552V5.51831Z" fill="#FF4B55"/>
<path d="M1.54997 26.3301L13.2114 18.7605H11.1847L0.576904 25.6462C0.836467 25.9492 1.17003 26.1866 1.54997 26.3301Z" fill="#FF4B55"/>
<path d="M21.6491 18.7605H19.6223L30.9171 26.0921C31.2331 25.8845 31.4969 25.6041 31.685 25.2749L21.6491 18.7605Z" fill="#FF4B55"/>
<path d="M0.252686 6.84425L10.1108 13.2434H12.1376L0.966811 5.99219C0.666873 6.21544 0.421436 6.50731 0.252686 6.84425Z" fill="#FF4B55"/>
<path d="M20.7858 13.2413L31.413 6.34281C31.1505 6.04088 30.8143 5.80488 30.4318 5.66406L18.759 13.2413H20.7858Z" fill="#FF4B55"/>
</svg>
