<svg width="32" height="32" viewBox="0 0 32 32" fill="none" xmlns="http://www.w3.org/2000/svg">
<path d="M3.19995 15.9999C3.19995 8.93071 8.93071 3.19995 16 3.19995C23.0692 3.19995 28.7999 8.93071 28.7999 16C28.7999 23.0692 23.0692 28.7999 15.9999 28.7999C8.93071 28.7999 3.19995 23.0692 3.19995 15.9999Z" fill="#E93C47"/>
<path d="M16 16L15.9999 22.4M16 11.2562V11.2M3.19995 15.9999C3.19995 8.9307 8.93071 3.19995 16 3.19995C23.0692 3.19995 28.8 8.93071 28.7999 16C28.7999 23.0692 23.0692 28.8 15.9999 28.7999C8.9307 28.7999 3.19995 23.0692 3.19995 15.9999Z" stroke="white" stroke-width="2" stroke-linecap="round" stroke-linejoin="round"/>
</svg>
