<svg width="32" height="32" viewBox="0 0 32 32" fill="none" xmlns="http://www.w3.org/2000/svg">
<path d="M25.9555 3.19995C27.5264 3.19995 28.7999 4.45601 28.7999 6.00543L28.7999 10.7945C28.7999 12.344 27.5265 13.6 25.9555 13.6H21.6888C20.1179 13.6 18.8444 12.3439 18.8444 10.7945L18.8444 6.00543C18.8444 4.45601 20.1179 3.19995 21.6888 3.19995L25.9555 3.19995Z" stroke="#388FF3" stroke-width="2.5" stroke-linecap="round" stroke-linejoin="round"/>
<path d="M6.04439 3.19995C4.47345 3.19995 3.19995 4.45601 3.19995 6.00543L3.19996 10.7945C3.19996 12.344 4.47346 13.6 6.04441 13.6H10.3111C11.882 13.6 13.1555 12.3439 13.1555 10.7945L13.1555 6.00543C13.1555 4.45601 11.882 3.19995 10.3111 3.19995L6.04439 3.19995Z" stroke="#388FF3" stroke-width="2.5" stroke-linecap="round" stroke-linejoin="round"/>
<path d="M25.9555 18.4C27.5265 18.4 28.7999 19.6561 28.7999 21.2055V25.9945C28.7999 27.544 27.5265 28.8 25.9555 28.8H21.6889C20.1179 28.8 18.8444 27.5439 18.8444 25.9945L18.8444 21.2055C18.8444 19.6561 20.1179 18.4 21.6888 18.4H25.9555Z" stroke="#388FF3" stroke-width="2.5" stroke-linecap="round" stroke-linejoin="round"/>
<path d="M6.04441 18.4C4.47346 18.4 3.19996 19.6561 3.19996 21.2055L3.19997 25.9945C3.19997 27.544 4.47347 28.8 6.04441 28.8H10.3111C11.882 28.8 13.1555 27.5439 13.1555 25.9945L13.1555 21.2055C13.1555 19.6561 11.882 18.4 10.3111 18.4H6.04441Z" stroke="#388FF3" stroke-width="2.5" stroke-linecap="round" stroke-linejoin="round"/>
</svg>
