<svg width="21" height="19" viewBox="0 0 21 19" fill="none" xmlns="http://www.w3.org/2000/svg">
<path fill-rule="evenodd" clip-rule="evenodd" d="M18.5 10.572L11 18L3.49995 10.572M3.49995 10.572C2.15125 9.25959 1.65368 7.30105 2.21243 5.50404C2.77118 3.70703 4.29161 2.37596 6.14672 2.05971C8.00182 1.74346 9.87738 2.49562 11 4.00601C12.1272 2.5068 13.9988 1.76462 15.8472 2.08383C17.6955 2.40303 19.2098 3.72991 19.7689 5.52036C20.3281 7.31081 19.8381 9.26362 18.5 10.578" fill="#E93C47"/>
<path d="M19.2036 11.2825C19.596 10.8939 19.5991 10.2607 19.2105 9.86832C18.8218 9.47592 18.1887 9.47286 17.7963 9.8615L19.2036 11.2825ZM11 18L10.2963 18.7105C10.686 19.0965 11.3139 19.0965 11.7036 18.7105L11 18ZM4.20364 9.8615C3.81124 9.47286 3.17808 9.47592 2.78945 9.86832C2.40081 10.2607 2.40386 10.8939 2.79627 11.2825L4.20364 9.8615ZM2.80255 11.2887C3.19837 11.6739 3.83147 11.6652 4.21664 11.2694C4.6018 10.8736 4.59317 10.2405 4.19735 9.85533L2.80255 11.2887ZM11 4.00601L10.1974 4.60253C10.3854 4.85559 10.6819 5.00513 10.9972 5.00601C11.3125 5.00688 11.6097 4.859 11.7992 4.60699L11 4.00601ZM17.7992 9.86459C17.4052 10.2516 17.3995 10.8847 17.7865 11.2787C18.1735 11.6728 18.8067 11.6784 19.2007 11.2914L17.7992 9.86459ZM17.7963 9.8615L10.2963 17.2895L11.7036 18.7105L19.2036 11.2825L17.7963 9.8615ZM11.7036 17.2895L4.20364 9.8615L2.79627 11.2825L10.2963 18.7105L11.7036 17.2895ZM4.19735 9.85533C3.11839 8.80539 2.72034 7.23856 3.16734 5.80095L1.25753 5.20713C0.587029 7.36354 1.18411 9.71379 2.80255 11.2887L4.19735 9.85533ZM3.16734 5.80095C3.61434 4.36335 4.83068 3.29848 6.31476 3.04549L5.97867 1.07393C3.75254 1.45343 1.92803 3.05072 1.25753 5.20713L3.16734 5.80095ZM6.31476 3.04549C7.79885 2.79249 9.2993 3.39422 10.1974 4.60253L11.8026 3.40949C10.4555 1.59703 8.2048 0.694437 5.97867 1.07393L6.31476 3.04549ZM11.7992 4.60699C12.701 3.40762 14.1983 2.81388 15.677 3.06924L16.0173 1.09841C13.7993 0.715369 11.5534 1.60598 10.2007 3.40503L11.7992 4.60699ZM15.677 3.06924C17.1557 3.3246 18.3671 4.3861 18.8144 5.81847L20.7235 5.22225C20.0525 3.07371 18.2354 1.48146 16.0173 1.09841L15.677 3.06924ZM18.8144 5.81847C19.2618 7.25083 18.8698 8.81307 17.7992 9.86459L19.2007 11.2914C20.8065 9.71416 21.3945 7.37079 20.7235 5.22225L18.8144 5.81847Z" fill="#E93C47"/>
</svg>
