<svg width="25" height="24" viewBox="0 0 25 24" fill="none" xmlns="http://www.w3.org/2000/svg">
<path d="M20.3037 14.2823C20.6961 13.8937 20.6991 13.2605 20.3105 12.8681C19.9219 12.4757 19.2887 12.4727 18.8963 12.8613L20.3037 14.2823ZM12.1 20.9998L11.3963 21.7103C11.786 22.0963 12.4139 22.0963 12.8037 21.7103L12.1 20.9998ZM5.30368 12.8613C4.91128 12.4727 4.27812 12.4757 3.88948 12.8681C3.50085 13.2605 3.5039 13.8937 3.8963 14.2823L5.30368 12.8613ZM3.90259 14.2885C4.2984 14.6737 4.93151 14.665 5.31667 14.2692C5.70184 13.8734 5.6932 13.2403 5.29739 12.8551L3.90259 14.2885ZM12.1 7.00583L11.2974 7.60235C11.4855 7.85541 11.7819 8.00495 12.0972 8.00582C12.4125 8.0067 12.7098 7.85882 12.8993 7.6068L12.1 7.00583ZM18.8993 12.8644C18.5052 13.2514 18.4996 13.8845 18.8866 14.2786C19.2736 14.6726 19.9067 14.6783 20.3007 14.2913L18.8993 12.8644ZM18.8963 12.8613L11.3963 20.2893L12.8037 21.7103L20.3037 14.2823L18.8963 12.8613ZM12.8037 20.2893L5.30368 12.8613L3.8963 14.2823L11.3963 21.7103L12.8037 20.2893ZM5.29739 12.8551C4.21843 11.8052 3.82038 10.2384 4.26738 8.80077L2.35757 8.20695C1.68707 10.3634 2.28415 12.7136 3.90259 14.2885L5.29739 12.8551ZM4.26738 8.80077C4.71438 7.36317 5.93071 6.2983 7.4148 6.04531L7.0787 4.07375C4.85257 4.45324 3.02807 6.05054 2.35757 8.20695L4.26738 8.80077ZM7.4148 6.04531C8.89889 5.79231 10.3993 6.39403 11.2974 7.60235L12.9026 6.40931C11.5555 4.59684 9.30483 3.69425 7.0787 4.07375L7.4148 6.04531ZM12.8993 7.6068C13.8011 6.40743 15.2983 5.81369 16.777 6.06906L17.1174 4.09823C14.8993 3.71519 12.6535 4.60579 11.3007 6.40485L12.8993 7.6068ZM16.777 6.06906C18.2557 6.32442 19.4671 7.38592 19.9144 8.81828L21.8235 8.22207C21.1525 6.07353 19.3354 4.48127 17.1174 4.09823L16.777 6.06906ZM19.9144 8.81828C20.3618 10.2506 19.9698 11.8129 18.8993 12.8644L20.3007 14.2913C21.9066 12.714 22.4945 10.3706 21.8235 8.22207L19.9144 8.81828Z" fill="#8E9297"/>
</svg>
