<svg width="29" height="28" viewBox="0 0 29 28" fill="none" xmlns="http://www.w3.org/2000/svg">
<path d="M6.22002 25.7799L18.12 14.5799L23.72 20.1799M6.22002 25.7799H20.22C22.5396 25.7799 24.42 23.8995 24.42 21.5799V14.5799M6.22002 25.7799C3.90042 25.7799 2.02002 23.8995 2.02002 21.5799V7.57989C2.02002 5.26029 3.90042 3.37989 6.22002 3.37989H15.32M23.02 10.1397L23.02 6.17989M23.02 6.17989L23.02 2.22009M23.02 6.17989L19.0602 6.17989M23.02 6.17989L26.9798 6.17989M10.42 9.67989C10.42 10.8397 9.47982 11.7799 8.32002 11.7799C7.16022 11.7799 6.22002 10.8397 6.22002 9.67989C6.22002 8.52009 7.16022 7.57989 8.32002 7.57989C9.47982 7.57989 10.42 8.52009 10.42 9.67989Z" stroke="#388FF3" stroke-width="2" stroke-linecap="round" stroke-linejoin="round"/>
</svg>
