<svg width="75" height="74" viewBox="0 0 75 74" fill="none" xmlns="http://www.w3.org/2000/svg">
<rect x="5.5" y="5" width="64" height="64" rx="32" fill="#E93C47"/>
<circle opacity="0.32" cx="37.5" cy="37" r="36.5" stroke="#E93C47"/>
<path d="M41.9118 30V26.5C41.9118 25.5717 41.5399 24.6815 40.878 24.0251C40.2161 23.3687 39.3184 23 38.3824 23H26.0294C25.0934 23 24.1956 23.3687 23.5337 24.0251C22.8718 24.6815 22.5 25.5717 22.5 26.5V47.5C22.5 48.4283 22.8718 49.3185 23.5337 49.9749C24.1956 50.6313 25.0934 51 26.0294 51H38.3824C39.3184 51 40.2161 50.6313 40.878 49.9749C41.5399 49.3185 41.9118 48.4283 41.9118 47.5V44M31.3235 37H52.5M52.5 37L47.2059 31.75M52.5 37L47.2059 42.25" stroke="white" stroke-width="3.2" stroke-linecap="round" stroke-linejoin="round"/>
</svg>
