<svg width="24" height="24" viewBox="0 0 24 24" fill="none" xmlns="http://www.w3.org/2000/svg">
<path d="M14.6471 7.8V5.7C14.6471 5.14304 14.424 4.6089 14.0268 4.21507C13.6297 3.82125 13.091 3.6 12.5294 3.6H5.11765C4.55601 3.6 4.01738 3.82125 3.62024 4.21507C3.22311 4.6089 3 5.14304 3 5.7V18.3C3 18.857 3.22311 19.3911 3.62024 19.7849C4.01738 20.1787 4.55601 20.4 5.11765 20.4H12.5294C13.091 20.4 13.6297 20.1787 14.0268 19.7849C14.424 19.3911 14.6471 18.857 14.6471 18.3V16.2M8.29412 12H21M21 12L17.8235 8.85M21 12L17.8235 15.15" stroke="#E93C47" stroke-width="2" stroke-linecap="round" stroke-linejoin="round"/>
</svg>
