<svg width="24" height="24" viewBox="0 0 24 24" fill="none" xmlns="http://www.w3.org/2000/svg">
<path d="M19.4666 2.39998C20.6448 2.39998 21.5999 3.34202 21.5999 4.50409L21.5999 8.09591C21.5999 9.25798 20.6448 10.2 19.4666 10.2H16.2666C15.0884 10.2 14.1332 9.25798 14.1332 8.09591L14.1332 4.50409C14.1332 3.34202 15.0884 2.39998 16.2666 2.39998L19.4666 2.39998Z" stroke="#8E9297" stroke-width="2" stroke-linecap="round" stroke-linejoin="round"/>
<path d="M4.53323 2.39998C3.35503 2.39998 2.3999 3.34202 2.3999 4.50409L2.39991 8.09591C2.39991 9.25798 3.35504 10.2 4.53324 10.2H7.73324C8.91145 10.2 9.86658 9.25798 9.86658 8.09591L9.86657 4.50409C9.86657 3.34202 8.91144 2.39998 7.73323 2.39998L4.53323 2.39998Z" stroke="#8E9297" stroke-width="2" stroke-linecap="round" stroke-linejoin="round"/>
<path d="M19.4666 13.8C20.6448 13.8 21.5999 14.7421 21.5999 15.9041V19.4959C21.5999 20.658 20.6448 21.6 19.4666 21.6H16.2666C15.0884 21.6 14.1332 20.658 14.1332 19.4959L14.1332 15.9041C14.1332 14.7421 15.0884 13.8 16.2666 13.8H19.4666Z" stroke="#8E9297" stroke-width="2" stroke-linecap="round" stroke-linejoin="round"/>
<path d="M4.53324 13.8C3.35504 13.8 2.39991 14.7421 2.39991 15.9041L2.39991 19.4959C2.39991 20.658 3.35504 21.6 4.53325 21.6H7.73325C8.91145 21.6 9.86658 20.658 9.86658 19.4959L9.86657 15.9041C9.86657 14.7421 8.91145 13.8 7.73324 13.8H4.53324Z" stroke="#8E9297" stroke-width="2" stroke-linecap="round" stroke-linejoin="round"/>
</svg>
