<svg width="18" height="17" viewBox="0 0 18 17" fill="none" xmlns="http://www.w3.org/2000/svg">
<path d="M16.2197 14.1423C16.2197 14.1423 15.2541 15.0906 15.0175 15.3686C14.6321 15.78 14.1779 15.9742 13.5825 15.9742C13.5253 15.9742 13.4642 15.9742 13.407 15.9704C12.2735 15.898 11.2202 15.4562 10.4302 15.0792C8.27009 14.0356 6.37333 12.5541 4.79715 10.6764C3.49576 9.11108 2.62561 7.66381 2.04933 6.10989C1.69441 5.16155 1.56465 4.42268 1.6219 3.7257C1.66006 3.28009 1.8318 2.91066 2.14856 2.59454L3.44996 1.2958C3.63696 1.12061 3.83542 1.02539 4.03005 1.02539C4.27049 1.02539 4.46513 1.17012 4.58725 1.29199C4.59107 1.2958 4.59488 1.29961 4.5987 1.30342C4.8315 1.52051 5.05285 1.74522 5.28565 1.98516C5.40396 2.10704 5.52609 2.22891 5.64821 2.3546L6.6901 3.39435C7.09464 3.79806 7.09464 4.17131 6.6901 4.57502C6.57942 4.68547 6.47256 4.79592 6.36188 4.90256C6.0413 5.2301 6.29314 4.97878 5.96111 5.27586C5.95348 5.28347 5.94584 5.28728 5.94203 5.2949C5.61382 5.62244 5.67488 5.94236 5.74357 6.15946C5.74739 6.17088 5.75121 6.18231 5.75502 6.19373C6.02599 6.84881 6.40763 7.46581 6.98772 8.20087L6.99154 8.20468C8.04487 9.49961 9.15545 10.5089 10.3805 11.282C10.537 11.3811 10.6973 11.461 10.8499 11.5372C10.9873 11.6058 11.1171 11.6705 11.2278 11.7391C11.243 11.7467 11.2583 11.7581 11.2736 11.7657C11.4033 11.8305 11.5254 11.861 11.6514 11.861C11.9681 11.861 12.1666 11.6629 12.2315 11.5982L12.9795 10.8516C13.1093 10.7221 13.3154 10.566 13.5558 10.566C13.7924 10.566 13.9871 10.7145 14.1054 10.844C14.1092 10.8478 14.1092 10.8478 14.113 10.8516L16.2159 12.9502C16.609 13.3386 16.2197 14.1423 16.2197 14.1423Z" stroke="white" stroke-width="1.5" stroke-linecap="round" stroke-linejoin="round"/>
</svg>
