<svg width="24" height="24" viewBox="0 0 24 24" fill="none" xmlns="http://www.w3.org/2000/svg">
<path d="M12.871 6.32594C14.0709 6.52704 15.1608 7.09376 16.031 7.96212C16.9011 8.83049 17.4644 9.91823 17.6705 11.1157M13.0542 2.40001C15.1883 2.76107 17.1347 3.77111 18.6826 5.31132C20.2306 6.85609 21.2381 8.79849 21.5999 10.9283M19.9329 19.4017C19.9329 19.4017 18.7742 20.5397 18.4903 20.8733C18.0277 21.3669 17.4827 21.6 16.7683 21.6C16.6996 21.6 16.6263 21.6 16.5576 21.5954C15.1974 21.5086 13.9335 20.9784 12.9855 20.526C10.3933 19.2737 8.11724 17.4958 6.22582 15.2427C4.66415 13.3643 3.61997 11.6275 2.92844 9.76282C2.50253 8.62481 2.34682 7.73816 2.41551 6.90179C2.46131 6.36706 2.6674 5.92374 3.04751 5.5444L4.60919 3.98591C4.83359 3.77568 5.07174 3.66142 5.3053 3.66142C5.59382 3.66142 5.82739 3.83509 5.97394 3.98134C5.97852 3.98591 5.9831 3.99049 5.98768 3.99506C6.26704 4.25556 6.53266 4.52521 6.81202 4.81315C6.95399 4.9594 7.10054 5.10565 7.24709 5.25647L8.49735 6.50417C8.9828 6.98863 8.9828 7.43652 8.49735 7.92098C8.36454 8.05352 8.23631 8.18606 8.1035 8.31403C7.7188 8.70707 8.021 8.40549 7.62257 8.76198C7.61341 8.77112 7.60425 8.77569 7.59967 8.78483C7.20582 9.17788 7.27909 9.56179 7.36153 9.8223C7.36611 9.83601 7.37069 9.84972 7.37527 9.86343C7.70042 10.6495 8.15839 11.3899 8.85451 12.272L8.85909 12.2766C10.1231 13.8305 11.4558 15.0416 12.9259 15.9694C13.1136 16.0882 13.306 16.1842 13.4892 16.2756C13.654 16.3579 13.8097 16.4356 13.9426 16.5178C13.9609 16.527 13.9792 16.5407 13.9975 16.5498C14.1532 16.6275 14.2998 16.6641 14.4509 16.6641C14.831 16.6641 15.0692 16.4264 15.147 16.3487L16.0447 15.4529C16.2004 15.2975 16.4477 15.1101 16.7362 15.1101C17.0202 15.1101 17.2537 15.2884 17.3957 15.4438C17.4003 15.4483 17.4003 15.4483 17.4049 15.4529L19.9283 17.9712C20.4 18.4373 19.9329 19.4017 19.9329 19.4017Z" stroke="#388FF3" stroke-width="2" stroke-linecap="round" stroke-linejoin="round"/>
</svg>
