<svg width="32" height="32" viewBox="0 0 32 32" fill="none" xmlns="http://www.w3.org/2000/svg">
<path d="M3.19995 16C3.19995 8.93071 8.93071 3.19995 16 3.19995C23.0692 3.19995 28.7999 8.93071 28.7999 16C28.7999 23.0692 23.0692 28.7999 16 28.7999C8.93071 28.7999 3.19995 23.0692 3.19995 16Z" fill="#21B264"/>
<path d="M20.4686 13.1313L14.4 19.2L12.3313 17.1313M16 3.19995C8.93071 3.19995 3.19995 8.93071 3.19995 16C3.19995 23.0692 8.93071 28.7999 16 28.7999C23.0692 28.7999 28.7999 23.0692 28.7999 16C28.7999 8.93071 23.0692 3.19995 16 3.19995Z" stroke="white" stroke-width="2" stroke-linecap="round" stroke-linejoin="round"/>
</svg>
