<svg width="161" height="150" viewBox="0 0 161 150" fill="none" xmlns="http://www.w3.org/2000/svg">
<path d="M127.892 149.982C130.497 149.988 133.008 149.01 134.922 147.243C142.907 139.853 149.295 130.908 153.693 120.958C158.091 111.008 160.406 100.264 160.497 89.3863C160.905 45.1562 124.939 8.76281 80.693 8.65843C36.4216 8.55399 0.500053 44.3995 0.500053 88.6321C0.487411 99.6412 2.75502 110.534 7.16009 120.624C11.5652 130.714 18.0123 139.783 26.0955 147.26C28.0056 149.018 30.5096 149.991 33.1062 149.982H127.892Z" fill="url(#paint0_linear_413_13491)"/>
<path d="M96.0707 9.35371C94.7489 9.34212 93.4577 8.95782 92.3471 8.2455C91.2366 7.53318 90.3524 6.52214 89.7975 5.33002C89.0322 3.73434 87.8276 2.38678 86.3232 1.44345C84.8188 0.500131 83.0763 -0.000347884 81.2974 1.81427e-07H79.7028V0.136362C78.2067 0.392599 76.795 1.00409 75.5878 1.91884C74.3806 2.83358 73.4136 4.02451 72.769 5.39034C72.2153 6.57242 71.3339 7.57312 70.2281 8.2751C69.1223 8.97708 67.8381 9.35124 66.5259 9.35371H60.1065C59.6547 9.35371 59.2074 9.44212 58.79 9.6139C58.3727 9.78568 57.9935 10.0375 57.674 10.3549C57.3546 10.6723 57.1012 11.0491 56.9284 11.4638C56.7555 11.8786 56.6665 12.323 56.6665 12.7719V18.2964C56.6665 19.2029 57.0289 20.0724 57.6741 20.7134C58.3192 21.3545 59.1941 21.7146 60.1065 21.7146H102.488C103.401 21.7146 104.276 21.3545 104.921 20.7134C105.566 20.0724 105.928 19.2029 105.928 18.2964V12.772C105.928 11.8654 105.566 10.9959 104.921 10.3549C104.276 9.71385 103.401 9.35371 102.488 9.35371H96.0707Z" fill="#388FF3"/>
<path opacity="0.15" d="M96.0707 9.35371C94.7489 9.34212 93.4577 8.95782 92.3471 8.2455C91.2366 7.53318 90.3524 6.52214 89.7975 5.33002C89.0322 3.73434 87.8276 2.38678 86.3232 1.44345C84.8188 0.500131 83.0763 -0.000347884 81.2974 1.81427e-07H79.7028V0.136362C78.2067 0.392599 76.795 1.00409 75.5878 1.91884C74.3806 2.83358 73.4136 4.02451 72.769 5.39034C72.2153 6.57242 71.3339 7.57312 70.2281 8.2751C69.1223 8.97708 67.8381 9.35124 66.5259 9.35371H60.1065C59.6547 9.35371 59.2074 9.44212 58.79 9.6139C58.3727 9.78568 57.9935 10.0375 57.674 10.3549C57.3546 10.6723 57.1012 11.0491 56.9284 11.4638C56.7555 11.8786 56.6665 12.323 56.6665 12.7719V18.2964C56.6665 19.2029 57.0289 20.0724 57.6741 20.7134C58.3192 21.3545 59.1941 21.7146 60.1065 21.7146H102.488C103.401 21.7146 104.276 21.3545 104.921 20.7134C105.566 20.0724 105.928 19.2029 105.928 18.2964V12.772C105.928 11.8654 105.566 10.9959 104.921 10.3549C104.276 9.71385 103.401 9.35371 102.488 9.35371H96.0707Z" fill="#16191D"/>
<path fill-rule="evenodd" clip-rule="evenodd" d="M125.96 15.8613C128.597 15.8613 130.735 17.9855 130.735 20.6059V145.256C130.735 147.876 128.597 150 125.96 150H37.5852C34.9482 150 32.8105 147.876 32.8105 145.256V20.6059C32.8105 17.9855 34.9482 15.8613 37.5852 15.8613H125.96Z" fill="#F0F3F7"/>
<path fill-rule="evenodd" clip-rule="evenodd" d="M123.416 15.8613C126.053 15.8613 128.19 17.9855 128.19 20.6059V145.256C128.19 147.876 126.053 150 123.416 150H35.0408C32.4038 150 30.2661 147.876 30.2661 145.256V20.6059C30.2661 17.9855 32.4038 15.8613 35.0408 15.8613H123.416Z" fill="#D5D8DB"/>
<path fill-rule="evenodd" clip-rule="evenodd" d="M119.227 21.1909C120.944 21.1909 122.336 22.5743 122.336 24.2809V141.526C122.336 143.233 120.944 144.616 119.227 144.616H39.2297C37.5123 144.616 36.1201 143.233 36.1201 141.526V24.2809C36.1201 22.5743 37.5123 21.1909 39.2297 21.1909H119.227Z" fill="white"/>
<path fill-rule="evenodd" clip-rule="evenodd" d="M51.9185 59.079C47.319 59.079 43.5903 55.3737 43.5903 50.8029C43.5903 46.2322 47.319 42.5269 51.9185 42.5269C56.518 42.5269 60.2466 46.2322 60.2466 50.8029C60.2466 55.3737 56.518 59.079 51.9185 59.079Z" fill="#388FF3"/>
<path fill-rule="evenodd" clip-rule="evenodd" d="M51.9185 82.7548C47.319 82.7548 43.5903 79.0495 43.5903 74.4787C43.5903 69.908 47.319 66.2026 51.9185 66.2026C56.518 66.2026 60.2466 69.908 60.2466 74.4787C60.2466 79.0495 56.518 82.7548 51.9185 82.7548Z" fill="#388FF3"/>
<path fill-rule="evenodd" clip-rule="evenodd" d="M51.9185 106.431C47.319 106.431 43.5903 102.726 43.5903 98.155C43.5903 93.5842 47.319 89.8789 51.9185 89.8789C56.518 89.8789 60.2466 93.5842 60.2466 98.155C60.2466 102.726 56.518 106.431 51.9185 106.431Z" fill="#388FF3"/>
<path d="M49.819 54.7871C49.6814 54.7305 49.5564 54.6474 49.4512 54.5426L47.1419 52.2477C46.93 52.0362 46.8112 51.7499 46.8115 51.4515C46.8119 51.153 46.9313 50.8669 47.1436 50.6559C47.356 50.4449 47.6439 50.3262 47.9442 50.3259C48.2445 50.3255 48.5326 50.4436 48.7455 50.6541L50.253 52.1522L54.5357 47.8963C54.641 47.7913 54.766 47.7079 54.9037 47.651C55.0413 47.594 55.189 47.5646 55.3381 47.5645C55.4872 47.5643 55.6349 47.5934 55.7727 47.65C55.9105 47.7066 56.0357 47.7897 56.1411 47.8945C56.2466 47.9993 56.3302 48.1237 56.3872 48.2606C56.4442 48.3976 56.4734 48.5444 56.4733 48.6925C56.4731 48.8407 56.4435 48.9874 56.3862 49.1242C56.3289 49.2611 56.245 49.3853 56.1393 49.4899L51.0548 54.5426C50.9497 54.6474 50.8247 54.7305 50.6871 54.7871C50.5495 54.8437 50.402 54.8728 50.253 54.8726C50.1041 54.8728 49.9566 54.8437 49.819 54.7871Z" fill="white"/>
<path fill-rule="evenodd" clip-rule="evenodd" d="M112.877 48.2686C114.285 48.2686 115.427 49.4034 115.427 50.8032V50.8032C115.427 52.2031 114.285 53.3379 112.877 53.3379H68.5762C67.1674 53.3379 66.0254 52.2031 66.0254 50.8032V50.8032C66.0254 49.4034 67.1674 48.2686 68.5762 48.2686H112.877Z" fill="#D5D8DB"/>
<path d="M49.819 78.4632C49.6814 78.4066 49.5564 78.3235 49.4512 78.2187L47.1419 75.9239C46.93 75.7124 46.8112 75.426 46.8115 75.1276C46.8119 74.8292 46.9313 74.5431 47.1436 74.3321C47.356 74.121 47.6439 74.0023 47.9442 74.002C48.2445 74.0017 48.5326 74.1197 48.7455 74.3303L50.253 75.8284L54.5357 71.5724C54.7486 71.3619 55.0367 71.2438 55.337 71.2441C55.6373 71.2445 55.9252 71.3632 56.1376 71.5742C56.3499 71.7852 56.4693 72.0713 56.4697 72.3697C56.47 72.6681 56.3512 72.9545 56.1393 73.166L51.0548 78.2187C50.9497 78.3235 50.8247 78.4066 50.6871 78.4632C50.5495 78.5199 50.402 78.5489 50.253 78.5487C50.1041 78.5489 49.9566 78.5199 49.819 78.4632Z" fill="white"/>
<path fill-rule="evenodd" clip-rule="evenodd" d="M112.877 71.9443C114.285 71.9443 115.427 73.0792 115.427 74.479V74.479C115.427 75.8789 114.285 77.0137 112.877 77.0137H68.5762C67.1674 77.0137 66.0254 75.8789 66.0254 74.479V74.479C66.0254 73.0792 67.1674 71.9443 68.5762 71.9443H112.877Z" fill="#D5D8DB"/>
<path d="M49.819 102.139C49.6814 102.083 49.5564 102 49.4512 101.895L47.1419 99.6001C46.93 99.3886 46.8112 99.1023 46.8115 98.8039C46.8119 98.5054 46.9313 98.2193 47.1436 98.0083C47.356 97.7973 47.6439 97.6786 47.9442 97.6783C48.2445 97.6779 48.5326 97.796 48.7455 98.0065L50.253 99.5046L54.5357 95.2487C54.7486 95.0381 55.0367 94.9201 55.337 94.9204C55.6373 94.9207 55.9252 95.0394 56.1376 95.2505C56.3499 95.4615 56.4693 95.7476 56.4697 96.046C56.47 96.3444 56.3512 96.6308 56.1393 96.8423L51.0548 101.895C50.9497 102 50.8247 102.083 50.6871 102.14C50.5495 102.196 50.402 102.225 50.253 102.225C50.1041 102.225 49.9566 102.196 49.819 102.139Z" fill="white"/>
<path fill-rule="evenodd" clip-rule="evenodd" d="M112.877 95.6206C114.285 95.6206 115.427 96.7554 115.427 98.1553C115.427 99.5552 114.285 100.69 112.877 100.69H68.5762C67.1674 100.69 66.0254 99.5552 66.0254 98.1553C66.0254 96.7554 67.1674 95.6206 68.5762 95.6206H112.877Z" fill="#D5D8DB"/>
<path fill-rule="evenodd" clip-rule="evenodd" d="M51.9185 130.108C47.319 130.108 43.5903 126.402 43.5903 121.832C43.5903 117.261 47.319 113.556 51.9185 113.556C56.518 113.556 60.2466 117.261 60.2466 121.832C60.2466 126.402 56.518 130.108 51.9185 130.108Z" fill="#D5D8DB"/>
<path fill-rule="evenodd" clip-rule="evenodd" d="M112.877 119.296C114.285 119.296 115.427 120.431 115.427 121.831V121.831C115.427 123.231 114.285 124.366 112.877 124.366H68.5762C67.1674 124.366 66.0254 123.231 66.0254 121.831V121.831C66.0254 120.431 67.1674 119.296 68.5762 119.296H112.877Z" fill="#D5D8DB"/>
<path d="M94.4755 9.35372C93.1537 9.34213 91.8625 8.95783 90.7519 8.24551C89.6414 7.53319 88.7572 6.52215 88.2023 5.33003C87.4367 3.73457 86.232 2.38719 84.7277 1.44391C83.2234 0.500622 81.481 0 79.7022 0C77.9234 0 76.181 0.500622 74.6767 1.44391C73.1723 2.38719 71.9676 3.73457 71.202 5.33003C70.6472 6.52215 69.763 7.53319 68.6525 8.24551C67.5419 8.95782 66.2506 9.34213 64.9289 9.35372H58.5113C58.0595 9.35372 57.6122 9.44213 57.1948 9.61391C56.7775 9.78569 56.3983 10.0375 56.0788 10.3549C55.7594 10.6723 55.506 11.0491 55.3331 11.4638C55.1603 11.8786 55.0713 12.3231 55.0713 12.7719V25.7985C55.0713 26.7051 55.4337 27.5746 56.0788 28.2156C56.724 28.8567 57.599 29.2168 58.5113 29.2168H100.893C101.345 29.2168 101.792 29.1284 102.209 28.9566C102.627 28.7848 103.006 28.533 103.325 28.2156C103.645 27.8982 103.898 27.5214 104.071 27.1066C104.244 26.6919 104.333 26.2474 104.333 25.7985V12.772C104.333 11.8654 103.971 10.996 103.325 10.3549C102.68 9.71386 101.805 9.35372 100.893 9.35372H94.4755Z" fill="#388FF3"/>
<path opacity="0.2" fill-rule="evenodd" clip-rule="evenodd" d="M99.284 24.1665C100.033 24.1665 100.64 24.7696 100.64 25.5136V25.5136C100.64 26.2576 100.033 26.8608 99.284 26.8608H61.2424C60.4937 26.8608 59.8867 26.2576 59.8867 25.5136V25.5136C59.8867 24.7696 60.4937 24.1665 61.2424 24.1665H99.284Z" fill="white"/>
<path fill-rule="evenodd" clip-rule="evenodd" d="M118.991 147.385C108.987 147.385 100.877 139.326 100.877 129.385C100.877 119.444 108.987 111.385 118.991 111.385C128.994 111.385 137.104 119.444 137.104 129.385C137.104 139.326 128.994 147.385 118.991 147.385Z" fill="#21B264"/>
<path d="M115.581 136.733C115.336 136.633 115.114 136.487 114.927 136.302L109.014 130.47C108.636 130.098 108.425 129.592 108.425 129.065C108.425 128.538 108.637 128.033 109.015 127.66C109.393 127.288 109.905 127.078 110.44 127.078C110.974 127.078 111.486 127.287 111.864 127.659L116.352 132.085L127.625 120.967C127.813 120.782 128.035 120.636 128.279 120.536C128.524 120.436 128.786 120.384 129.051 120.384C129.315 120.384 129.577 120.436 129.822 120.536C130.067 120.636 130.289 120.782 130.476 120.967C130.663 121.151 130.812 121.37 130.913 121.611C131.014 121.853 131.066 122.111 131.066 122.372C131.066 122.633 131.014 122.892 130.913 123.133C130.812 123.374 130.663 123.593 130.476 123.778L117.777 136.302C117.59 136.487 117.368 136.634 117.124 136.733C116.879 136.833 116.617 136.885 116.352 136.884C116.087 136.885 115.825 136.833 115.581 136.733Z" fill="white"/>
<defs>
<linearGradient id="paint0_linear_413_13491" x1="0.5" y1="8.6582" x2="0.5" y2="149.982" gradientUnits="userSpaceOnUse">
<stop stop-color="#FBFDFE"/>
<stop offset="1" stop-color="#F0F5FA"/>
</linearGradient>
</defs>
</svg>
