<svg width="32" height="32" viewBox="0 0 32 32" fill="none" xmlns="http://www.w3.org/2000/svg">
<path d="M29.6034 5.51831H2.39656C1.07294 5.51831 0 6.59125 0 7.91487V11.8861H32V7.91487C32 6.59125 30.9271 5.51831 29.6034 5.51831Z" fill="#82AFFF"/>
<path d="M0 24.0857C0 25.4093 1.07294 26.4823 2.39656 26.4823H29.6034C30.927 26.4823 32 25.4093 32 24.0857V20.1145H0V24.0857Z" fill="#73AF00"/>
<path d="M32 12.7551H0V19.242H32V12.7551Z" fill="#F5F5F5"/>
<path d="M0 12.5063V12.7569H32V12.5063V11.8855H0V12.5063Z" fill="#FF4B55"/>
<path d="M0 19.4955V20.1163H32V19.4955V19.2449H0V19.4955Z" fill="#FF4B55"/>
<path d="M7.09292 10.7541C5.96342 10.7541 5.04786 9.84075 5.04786 8.71531C5.04786 7.58575 5.96336 6.66825 7.09292 6.66825C7.0973 6.66825 7.10155 6.66825 7.1058 6.66831C7.1723 6.66919 7.19561 6.58088 7.13698 6.54944C6.78917 6.363 6.39223 6.2575 5.97023 6.26056C4.61873 6.27019 3.52092 7.39013 3.5353 8.74163C3.54942 10.0792 4.64292 11.1619 5.98792 11.1619C6.40411 11.1619 6.79548 11.0566 7.13898 10.8727C7.19742 10.8414 7.1738 10.7531 7.10755 10.754C7.10255 10.7541 7.09773 10.7541 7.09292 10.7541Z" fill="#F5F5F5"/>
<path d="M8.6948 10.1906L8.60348 10.4645L8.3148 10.4667C8.27742 10.467 8.26192 10.5147 8.29198 10.5369L8.52423 10.7084L8.43711 10.9836C8.42586 11.0193 8.46642 11.0488 8.49686 11.027L8.73173 10.8591L8.96661 11.027C8.99705 11.0488 9.03755 11.0193 9.02636 10.9836L8.93923 10.7084L9.17142 10.5369C9.20148 10.5147 9.18598 10.467 9.14861 10.4667L8.85992 10.4645L8.76861 10.1906C8.7568 10.1552 8.70667 10.1552 8.6948 10.1906Z" fill="#F5F5F5"/>
<path d="M10.7285 10.1906L10.6372 10.4645L10.3485 10.4667C10.3111 10.467 10.2956 10.5147 10.3257 10.5369L10.5579 10.7084L10.4707 10.9836C10.4595 11.0193 10.5 11.0488 10.5305 11.027L10.7654 10.8591L11.0002 11.027C11.0307 11.0488 11.0712 11.0193 11.06 10.9836L10.9729 10.7084L11.205 10.5369C11.2351 10.5147 11.2196 10.467 11.1822 10.4667L10.8935 10.4645L10.8022 10.1906C10.7904 10.1552 10.7402 10.1552 10.7285 10.1906Z" fill="#F5F5F5"/>
<path d="M12.7624 10.1906L12.6711 10.4645L12.3824 10.4667C12.345 10.467 12.3295 10.5147 12.3596 10.5369L12.5919 10.7084L12.5047 10.9836C12.4935 11.0193 12.534 11.0488 12.5645 11.027L12.7994 10.8591L13.0342 11.027C13.0647 11.0488 13.1052 11.0193 13.094 10.9836L13.0069 10.7084L13.239 10.5369C13.2691 10.5147 13.2536 10.467 13.2162 10.4667L12.9275 10.4645L12.8362 10.1906C12.8244 10.1552 12.7742 10.1552 12.7624 10.1906Z" fill="#F5F5F5"/>
<path d="M14.7964 10.1906L14.705 10.4645L14.4164 10.4667C14.379 10.467 14.3635 10.5147 14.3935 10.5369L14.6257 10.7084L14.5386 10.9836C14.5274 11.0193 14.5679 11.0488 14.5984 11.027L14.8332 10.8591L15.0681 11.027C15.0985 11.0488 15.139 11.0193 15.1279 10.9836L15.0407 10.7084L15.2729 10.5369C15.303 10.5147 15.2875 10.467 15.2501 10.4667L14.9614 10.4645L14.8701 10.1906C14.8584 10.1552 14.8082 10.1552 14.7964 10.1906Z" fill="#F5F5F5"/>
<path d="M16.83 10.1906L16.7387 10.4645L16.45 10.4667C16.4127 10.467 16.3972 10.5147 16.4272 10.5369L16.6595 10.7084L16.5724 10.9836C16.5611 11.0193 16.6017 11.0488 16.6321 11.027L16.867 10.8591L17.1019 11.027C17.1323 11.0488 17.1728 11.0193 17.1616 10.9836L17.0745 10.7084L17.3067 10.5369C17.3368 10.5147 17.3213 10.467 17.2839 10.4667L16.9952 10.4645L16.9039 10.1906C16.892 10.1552 16.8419 10.1552 16.83 10.1906Z" fill="#F5F5F5"/>
<path d="M10.7285 8.2923L10.6372 8.56617L10.3485 8.56836C10.3111 8.56861 10.2956 8.61636 10.3257 8.63855L10.5579 8.81005L10.4707 9.0853C10.4595 9.12092 10.5 9.15042 10.5305 9.12867L10.7654 8.9608L11.0002 9.12867C11.0307 9.15042 11.0712 9.12092 11.06 9.0853L10.9729 8.81005L11.205 8.63855C11.2351 8.61636 11.2196 8.56861 11.1822 8.56836L10.8935 8.56617L10.8022 8.2923C10.7904 8.25673 10.7402 8.25673 10.7285 8.2923Z" fill="#F5F5F5"/>
<path d="M12.7622 8.29205L12.6709 8.56593L12.3822 8.56812C12.3448 8.56837 12.3293 8.61612 12.3594 8.6383L12.5916 8.8098L12.5045 9.08505C12.4932 9.12068 12.5338 9.15018 12.5642 9.12843L12.7991 8.96055L13.034 9.12843C13.0644 9.15018 13.1049 9.12068 13.0937 9.08505L13.0066 8.8098L13.2388 8.6383C13.2689 8.61612 13.2534 8.56837 13.216 8.56812L12.9273 8.56593L12.836 8.29205C12.8242 8.25649 12.774 8.25649 12.7622 8.29205Z" fill="#F5F5F5"/>
<path d="M14.7959 8.29205L14.7046 8.56593L14.4159 8.56812C14.3785 8.56837 14.363 8.61612 14.3931 8.6383L14.6252 8.8098L14.5381 9.08505C14.5269 9.12068 14.5674 9.15018 14.5979 9.12843L14.8327 8.96055L15.0676 9.12843C15.0981 9.15018 15.1386 9.12068 15.1274 9.08505L15.0402 8.8098L15.2724 8.6383C15.3025 8.61612 15.287 8.56837 15.2496 8.56812L14.9609 8.56593L14.8696 8.29205C14.8579 8.25649 14.8077 8.25649 14.7959 8.29205Z" fill="#F5F5F5"/>
<path d="M16.8298 8.29205L16.7385 8.56593L16.4498 8.56812C16.4124 8.56837 16.3969 8.61612 16.427 8.6383L16.6592 8.8098L16.5721 9.08505C16.5609 9.12068 16.6014 9.15018 16.6319 9.12843L16.8667 8.96055L17.1016 9.12843C17.1321 9.15018 17.1726 9.12068 17.1614 9.08505L17.0742 8.8098L17.3065 8.6383C17.3366 8.61612 17.3211 8.56837 17.2837 8.56812L16.995 8.56593L16.9037 8.29205C16.8917 8.25649 16.8416 8.25649 16.8298 8.29205Z" fill="#F5F5F5"/>
<path d="M12.7624 10.1906L12.6711 10.4645L12.3824 10.4667C12.345 10.467 12.3295 10.5147 12.3596 10.5369L12.5919 10.7084L12.5047 10.9836C12.4935 11.0193 12.534 11.0488 12.5645 11.027L12.7994 10.8591L13.0342 11.027C13.0647 11.0488 13.1052 11.0193 13.094 10.9836L13.0069 10.7084L13.239 10.5369C13.2691 10.5147 13.2536 10.467 13.2162 10.4667L12.9275 10.4645L12.8362 10.1906C12.8244 10.1552 12.7742 10.1552 12.7624 10.1906Z" fill="#F5F5F5"/>
<path d="M12.7622 6.39377L12.6709 6.66764L12.3822 6.66983C12.3448 6.67008 12.3293 6.71783 12.3594 6.74002L12.5916 6.91152L12.5045 7.18677C12.4932 7.22239 12.5338 7.25189 12.5642 7.23014L12.7991 7.06227L13.034 7.23014C13.0644 7.25189 13.1049 7.22239 13.0937 7.18677L13.0066 6.91152L13.2388 6.74002C13.2689 6.71783 13.2534 6.67008 13.216 6.66983L12.9273 6.66764L12.836 6.39377C12.8242 6.35833 12.774 6.35833 12.7622 6.39377Z" fill="#F5F5F5"/>
<path d="M14.7964 10.1906L14.705 10.4645L14.4164 10.4667C14.379 10.467 14.3635 10.5147 14.3935 10.5369L14.6257 10.7084L14.5386 10.9836C14.5274 11.0193 14.5679 11.0488 14.5984 11.027L14.8332 10.8591L15.0681 11.027C15.0985 11.0488 15.139 11.0193 15.1279 10.9836L15.0407 10.7084L15.2729 10.5369C15.303 10.5147 15.2875 10.467 15.2501 10.4667L14.9614 10.4645L14.8701 10.1906C14.8584 10.1552 14.8082 10.1552 14.7964 10.1906Z" fill="#F5F5F5"/>
<path d="M16.83 10.1906L16.7387 10.4645L16.45 10.4667C16.4127 10.467 16.3972 10.5147 16.4272 10.5369L16.6595 10.7084L16.5724 10.9836C16.5611 11.0193 16.6017 11.0488 16.6321 11.027L16.867 10.8591L17.1019 11.027C17.1323 11.0488 17.1728 11.0193 17.1616 10.9836L17.0745 10.7084L17.3067 10.5369C17.3368 10.5147 17.3213 10.467 17.2839 10.4667L16.9952 10.4645L16.9039 10.1906C16.892 10.1552 16.8419 10.1552 16.83 10.1906Z" fill="#F5F5F5"/>
<path d="M14.7959 6.39377L14.7046 6.66764L14.4159 6.66983C14.3785 6.67008 14.363 6.71783 14.3931 6.74002L14.6252 6.91152L14.5381 7.18677C14.5269 7.22239 14.5674 7.25189 14.5979 7.23014L14.8327 7.06227L15.0676 7.23014C15.0981 7.25189 15.1386 7.22239 15.1274 7.18677L15.0402 6.91152L15.2724 6.74002C15.3025 6.71783 15.287 6.67008 15.2496 6.66983L14.9609 6.66764L14.8696 6.39377C14.8579 6.35833 14.8077 6.35833 14.7959 6.39377Z" fill="#F5F5F5"/>
<path d="M16.8298 6.39377L16.7385 6.66764L16.4498 6.66983C16.4124 6.67008 16.3969 6.71783 16.427 6.74002L16.6592 6.91152L16.5721 7.18677C16.5609 7.22239 16.6014 7.25189 16.6319 7.23014L16.8667 7.06227L17.1016 7.23014C17.1321 7.25189 17.1726 7.22239 17.1614 7.18677L17.0742 6.91152L17.3065 6.74002C17.3366 6.71783 17.3211 6.67008 17.2837 6.66983L16.995 6.66764L16.9037 6.39377C16.8917 6.35833 16.8416 6.35833 16.8298 6.39377Z" fill="#F5F5F5"/>
</svg>
